HIERARCHY
ROOT Hips
{
 OFFSET 0.000000 0.000000 0.000000
 CHANNELS 6 Xposition Yposition Zposition Yrotation Xrotation Zrotation
 JOINT Chest
 {
  OFFSET 0.000000 9.588913 -0.003946
  CHANNELS 3 Yrotation Xrotation Zrotation
  JOINT Chest2
  {
   OFFSET 0.000000 9.541882 0.008053
   CHANNELS 3 Yrotation Xrotation Zrotation
   JOINT Chest3
   {
    OFFSET 0.000000 9.501360 0.000000
    CHANNELS 3 Yrotation Xrotation Zrotation
    JOINT Chest4
    {
     OFFSET 0.000000 9.491660 0.000000
     CHANNELS 3 Yrotation Xrotation Zrotation
     JOINT Neck
     {
      OFFSET 0.000000 14.331917 0.000000
      CHANNELS 3 Yrotation Xrotation Zrotation
      JOINT Head
      {
       OFFSET 0.000000 8.884799 0.017034
       CHANNELS 3 Yrotation Xrotation Zrotation
       End Site
       {
        OFFSET 0.000000 16.896195 0.008993
       }
      }
     }
     JOINT RightCollar
     {
      OFFSET -2.923010 9.499495 0.000000
      CHANNELS 3 Yrotation Xrotation Zrotation
      JOINT RightShoulder
      {
       OFFSET -13.795216 0.000000 0.000000
       CHANNELS 3 Yrotation Xrotation Zrotation
       JOINT RightElbow
       {
        OFFSET -30.272209 0.000000 0.000000
        CHANNELS 3 Yrotation Xrotation Zrotation
        JOINT RightWrist
        {
         OFFSET -24.478199 0.000000 0.000000
         CHANNELS 3 Yrotation Xrotation Zrotation
         End Site
         {
          OFFSET -18.090752 0.000000 0.000000
         }
        }
       }
      }
     }
     JOINT LeftCollar
     {
      OFFSET 2.923010 9.499495 0.000000
      CHANNELS 3 Yrotation Xrotation Zrotation
      JOINT LeftShoulder
      {
       OFFSET 13.795216 0.000000 0.000000
       CHANNELS 3 Yrotation Xrotation Zrotation
       JOINT LeftElbow
       {
        OFFSET 30.272209 0.000000 0.000000
        CHANNELS 3 Yrotation Xrotation Zrotation
        JOINT LeftWrist
        {
         OFFSET 24.478199 0.000000 0.000000
         CHANNELS 3 Yrotation Xrotation Zrotation
         End Site
         {
          OFFSET 18.090752 0.000000 0.000000
         }
        }
       }
      }
     }
    }
   }
  }
 }
 JOINT RightHip
 {
  OFFSET -7.826875 0.019532 0.001973
  CHANNELS 3 Yrotation Xrotation Zrotation
  JOINT RightKnee
  {
   OFFSET 0.000000 -40.546152 -0.001885
   CHANNELS 3 Yrotation Xrotation Zrotation
   JOINT RightAnkle
   {
    OFFSET 0.000000 -39.417092 -0.003189
    CHANNELS 3 Yrotation Xrotation Zrotation
    JOINT RightToe
    {
     OFFSET 0.000000 -7.579396 17.243563
     CHANNELS 3 Yrotation Xrotation Zrotation
     End Site
     {
      OFFSET 0.000000 -1.500329 6.694466
     }
    }
   }
  }
 }
 JOINT LeftHip
 {
  OFFSET 7.826875 0.019532 0.001973
  CHANNELS 3 Yrotation Xrotation Zrotation
  JOINT LeftKnee
  {
   OFFSET 0.000000 -40.546152 -0.001885
   CHANNELS 3 Yrotation Xrotation Zrotation
   JOINT LeftAnkle
   {
    OFFSET 0.000000 -39.417092 -0.003189
    CHANNELS 3 Yrotation Xrotation Zrotation
    JOINT LeftToe
    {
     OFFSET 0.000000 -7.579396 17.243563
     CHANNELS 3 Yrotation Xrotation Zrotation
     End Site
     {
      OFFSET 0.000000 -1.500329 6.694466
     }
    }
   }
  }
 }
}
MOTION
Frames: 14
Frame Time: 0.008333
0.000000 87.345680 0.000000 0.000000 -5.767889 0.000000 0.000000 11.653876 0.000000 0.000000 -5.885988 0.000000 0.000000 -0.000000 0.000000 0.000000 -0.000000 0.000000 0.000000 12.528808 0.000000 0.000000 0.711711 0.000000 0.000000 -0.000000 0.000000 0.000000 -0.000000 0.000000 2.309063 -0.000000 0.000000 -2.309063 -0.000000 -0.000000 0.000000 -0.000000 0.000000 0.000000 0.000000 0.000000 -2.309063 0.000000 0.000000 2.309063 -0.000000 0.000000 0.000000 8.520374 0.000000 0.000000 1.905768 0.000000 -0.000000 -4.658254 0.000000 0.000000 -0.000000 0.000000 0.000000 8.520374 0.000000 0.000000 1.905768 0.000000 -0.000000 -4.658254 0.000000 0.000000 -0.000000 0.000000
-11.708077 88.261493 -24.734876 130.067763 -9.158975 -0.473071 4.085503 3.513184 0.440624 2.293128 1.992180 0.396450 2.868994 2.487616 0.508081 2.293128 1.992180 0.396450 3.954567 16.762970 -0.133350 4.221801 -8.038712 -1.044434 -2.687454 2.545279 -1.402303 -2.903992 -3.383337 90.671944 0.627552 -12.498766 -0.871261 -0.307604 -21.402778 1.406139 -7.807609 1.444960 -1.499920 5.216210 -2.874337 -84.649429 -4.755260 4.707153 -1.185575 5.821237 8.173622 -5.725918 -10.043586 9.737649 -11.830792 16.707666 -0.522160 -1.813955 20.945419 -7.087841 6.098643 0.037980 -0.451594 0.020376 18.518238 11.296645 11.391152 12.587772 -2.285492 -0.430394 10.757274 -0.860797 -6.816930 0.077793 0.463937 0.008089
-11.699500 88.260837 -24.739181 130.074598 -9.162094 -0.469465 4.083172 3.515304 0.440576 2.292100 1.993413 0.395890 2.867707 2.489162 0.507384 2.292100 1.993413 0.395890 3.959388 16.765547 -0.130992 4.226498 -8.035747 -1.043057 -2.677336 2.542011 -1.395414 -2.887560 -3.396271 90.675039 0.644793 -12.480466 -0.858212 -0.306700 -21.410933 1.402155 -7.845128 1.435008 -1.526575 5.158979 -2.937374 -84.696491 -4.996298 4.717901 -1.382921 5.797995 8.149507 -5.737504 -10.048931 9.744736 -11.835644 16.709390 -0.513305 -1.809034 20.929025 -7.097315 6.090400 0.036433 -0.446847 0.019073 18.523665 11.305485 11.396197 12.584956 -2.286109 -0.432088 10.736589 -0.859956 -6.819103 0.077608 0.462814 0.009411
-11.689495 88.260081 -24.743783 130.083299 -9.167207 -0.466119 4.079966 3.517682 0.441083 2.290263 1.995249 0.395639 2.865412 2.491462 0.507071 2.290263 1.995249 0.395639 3.963459 16.768714 -0.130573 4.230845 -8.032150 -1.043563 -2.671378 2.539892 -1.388804 -2.868275 -3.410057 90.678441 0.659697 -12.465114 -0.848724 -0.305334 -21.411789 1.397123 -7.882071 1.425423 -1.551023 5.103654 -2.995814 -84.744142 -5.234345 4.725090 -1.576932 5.774427 8.123038 -5.748789 -10.050650 9.759865 -11.835673 16.711295 -0.505625 -1.806373 20.886183 -7.106714 6.083114 0.032064 -0.440085 0.015934 18.524611 11.317992 11.401472 12.586622 -2.288377 -0.435208 10.720746 -0.858393 -6.820612 0.077978 0.462045 0.010927
-11.678573 88.259257 -24.748145 130.095312 -9.173160 -0.463821 4.074970 3.520777 0.442773 2.287013 1.997456 0.395776 2.861353 2.494223 0.507239 2.287013 1.997456 0.395776 3.967003 16.771542 -0.131542 4.234945 -8.028923 -1.045420 -2.669501 2.538254 -1.384885 -2.845942 -3.426928 90.683548 0.669641 -12.452865 -0.841793 -0.304344 -21.410866 1.390322 -7.916428 1.415323 -1.572360 5.049402 -3.050370 -84.794199 -5.466472 4.728762 -1.764144 5.749370 8.094744 -5.760880 -10.049136 9.778230 -11.837201 16.711838 -0.503070 -1.804566 20.857169 -7.114657 6.077806 0.028880 -0.435387 0.013094 18.518316 11.329639 11.406381 12.591845 -2.286977 -0.439059 10.714543 -0.859079 -6.821486 0.078986 0.462709 0.012909
-11.667094 88.258465 -24.752069 130.109039 -9.180362 -0.461917 4.067302 3.524580 0.445260 2.282347 1.999853 0.396136 2.855525 2.497222 0.507679 2.282347 1.999853 0.396136 3.971289 16.773568 -0.133124 4.239986 -8.026522 -1.048100 -2.665611 2.537404 -1.381996 -2.827101 -3.446580 90.689510 0.675414 -12.442181 -0.838178 -0.303234 -21.411860 1.382209 -7.943287 1.406375 -1.590926 4.995116 -3.102169 -84.846718 -5.691729 4.732019 -1.943553 5.726369 8.062306 -5.772035 -10.044808 9.795188 -11.844230 16.711174 -0.502426 -1.801345 20.862404 -7.123022 6.071372 0.029207 -0.434242 0.013013 18.508422 11.340039 11.411116 12.596807 -2.280823 -0.440274 10.710924 -0.861918 -6.823482 0.079980 0.463497 0.013861
-11.655353 88.257783 -24.755217 130.123345 -9.187862 -0.460725 4.057569 3.529172 0.448690 2.276748 2.002724 0.396916 2.848534 2.500813 0.508642 2.276748 2.002724 0.396916 3.975663 16.773837 -0.136018 4.245415 -8.025999 -1.052192 -2.659481 2.533833 -1.378969 -2.813153 -3.465455 90.695363 0.679808 -12.434209 -0.839331 -0.300525 -21.413023 1.377220 -7.964157 1.396142 -1.608612 4.944101 -3.151758 -84.900045 -5.909465 4.737750 -2.116933 5.704792 8.024265 -5.779644 -10.040597 9.812678 -11.850238 16.707790 -0.501748 -1.796781 20.870212 -7.131020 6.062806 0.029767 -0.432923 0.013393 18.496405 11.348979 11.415175 12.602169 -2.272312 -0.436195 10.704667 -0.864930 -6.828519 0.080931 0.463695 0.013942
-11.643557 88.257264 -24.757353 130.140656 -9.194142 -0.461065 4.046103 3.533922 0.452422 2.270320 2.005813 0.398060 2.840509 2.504674 0.510056 2.270320 2.005813 0.398060 3.978350 16.773102 -0.139392 4.249118 -8.026630 -1.056400 -2.654212 2.527792 -1.374971 -2.805064 -3.483065 90.700184 0.680638 -12.427920 -0.842222 -0.293144 -21.417894 1.375813 -7.986145 1.383936 -1.626633 4.899774 -3.199209 -84.952407 -6.117423 4.740872 -2.282427 5.679189 7.987215 -5.785571 -10.041659 9.830868 -11.852008 16.700908 -0.501426 -1.792670 20.869914 -7.137740 6.054333 0.029536 -0.430508 0.012266 18.480784 11.354687 11.419252 12.609717 -2.262116 -0.429642 10.695662 -0.867811 -6.835336 0.081328 0.463809 0.014120
-11.631759 88.256944 -24.758542 130.161940 -9.198283 -0.462965 4.033152 3.537563 0.456109 2.263217 2.008241 0.399426 2.831639 2.507709 0.511740 2.263217 2.008241 0.399426 3.978489 16.773276 -0.141895 4.249860 -8.026401 -1.059088 -2.649707 2.523858 -1.370469 -2.806993 -3.501848 90.703131 0.676557 -12.420793 -0.842177 -0.282983 -21.427125 1.371441 -8.013588 1.374778 -1.645526 4.861495 -3.245924 -85.003018 -6.313270 4.738369 -2.437448 5.648405 7.954052 -5.791153 -10.050108 9.845270 -11.852001 16.693775 -0.499407 -1.790268 20.878900 -7.144991 6.045514 0.030677 -0.429296 0.011809 18.462782 11.355344 11.424167 12.618341 -2.249167 -0.423782 10.685742 -0.871405 -6.841596 0.080866 0.464047 0.014356
-11.620023 88.256816 -24.759042 130.182331 -9.199171 -0.464944 4.018938 3.539506 0.459758 2.255367 2.009804 0.400736 2.821835 2.509664 0.513345 2.255367 2.009804 0.400736 3.978486 16.774273 -0.143318 4.250202 -8.025303 -1.060599 -2.640197 2.522138 -1.367378 -2.820974 -3.521681 90.706567 0.670236 -12.412173 -0.841026 -0.276180 -21.432768 1.366763 -8.042244 1.369939 -1.664966 4.827544 -3.292968 -85.048295 -6.495432 4.732128 -2.585278 5.617479 7.923588 -5.793437 -10.062430 9.858492 -11.845135 16.689655 -0.495192 -1.790583 20.861535 -7.152228 6.034956 0.029449 -0.425424 0.011244 18.447516 11.350670 11.429665 12.624320 -2.233532 -0.419563 10.676774 -0.875329 -6.846349 0.079899 0.463193 0.013954
-11.608414 88.256840 -24.759310 130.197777 -9.195947 -0.465163 4.003868 3.540622 0.462996 2.246992 2.010632 0.401677 2.811371 2.510704 0.514480 2.246992 2.010632 0.401677 3.979681 16.775067 -0.143970 4.251660 -8.024383 -1.061571 -2.622870 2.519853 -1.365250 -2.842701 -3.540054 90.709752 0.663839 -12.405632 -0.841580 -0.274961 -21.432789 1.367695 -8.068059 1.365570 -1.685323 4.796034 -3.338553 -85.085130 -6.662839 4.723025 -2.728327 5.587388 7.893865 -5.793846 -10.072676 9.866611 -11.836539 16.689089 -0.488602 -1.791547 20.834245 -7.160087 6.023469 0.027281 -0.420166 0.010724 18.437683 11.342532 11.434639 12.624510 -2.218035 -0.418027 10.671372 -0.877433 -6.848421 0.078767 0.460149 0.012384
-11.596942 88.256944 -24.759634 130.207727 -9.187377 -0.463685 3.989285 3.540493 0.465724 2.239174 2.010179 0.402164 2.801600 2.510144 0.515044 2.239174 2.010179 0.402164 3.979721 16.776219 -0.143379 4.251575 -8.023144 -1.060954 -2.602523 2.518012 -1.363132 -2.865623 -3.555367 90.710708 0.657525 -12.405448 -0.841242 -0.276812 -21.430170 1.370044 -8.091612 1.361726 -1.707158 4.765732 -3.380904 -85.114275 -6.817247 4.715481 -2.864645 5.557388 7.864394 -5.796611 -10.077023 9.860199 -11.836872 16.690026 -0.479955 -1.791327 20.859732 -7.170146 6.013196 0.030442 -0.420108 0.012735 18.431097 11.332229 11.438772 12.619210 -2.205694 -0.419757 10.669887 -0.876279 -6.847837 0.077435 0.455043 0.009867
-11.585614 88.257065 -24.760295 130.212202 -9.172784 -0.460780 3.975755 3.538437 0.467765 2.232162 2.008241 0.402329 2.792831 2.507729 0.515200 2.232162 2.008241 0.402329 3.977377 16.777658 -0.141453 4.248592 -8.021717 -1.058363 -2.582493 2.517447 -1.362058 -2.885565 -3.567885 90.709411 0.648629 -12.413458 -0.837836 -0.277766 -21.426450 1.370152 -8.112427 1.359506 -1.729264 4.736643 -3.420482 -85.140300 -6.960071 4.713150 -2.989473 5.532673 7.839541 -5.801045 -10.075846 9.841827 -11.841250 16.691047 -0.468729 -1.791771 20.914561 -7.182153 6.004419 0.036298 -0.423059 0.016120 18.427027 11.320020 11.441404 12.608657 -2.197899 -0.424179 10.673951 -0.871518 -6.845918 0.076459 0.448491 0.007633
-11.573874 88.257240 -24.761643 130.211315 -9.155310 -0.458330 3.964088 3.535875 0.470107 2.225847 2.005926 0.403175 2.784937 2.504838 0.516209 2.225847 2.005926 0.403175 3.972316 16.778091 -0.139210 4.242577 -8.021503 -1.054802 -2.564465 2.515868 -1.363730 -2.900031 -3.577950 90.706461 0.635574 -12.427989 -0.833504 -0.277876 -21.427002 1.371612 -8.132697 1.355396 -1.749780 4.710048 -3.457079 -85.166823 -7.089014 4.716449 -3.101193 5.515387 7.817588 -5.805650 -10.072023 9.824170 -11.837265 16.694468 -0.454389 -1.792711 20.926456 -7.193086 5.994076 0.037175 -0.422431 0.017799 18.428516 11.309289 11.443292 12.592825 -2.198131 -0.429153 10.688768 -0.861895 -6.843829 0.076390 0.441873 0.006957
